<svg xmlns="http://www.w3.org/2000/svg" width="20" height="20" viewBox="0 0 24 24">
  <path d="M12 12 C12.4 15.5 13.2 18.5 15.2 21" stroke="#2E6858" stroke-width="1.4" fill="none" stroke-linecap="round"/>
  <g transform="rotate(45 12 12)">
    <g>
      <circle cx="10.3" cy="5.9" r="2.35" fill="#2E6858"/>
      <circle cx="13.7" cy="5.9" r="2.35" fill="#2E6858"/>
      <polygon points="8.4,6.9 15.6,6.9 12,11.6" fill="#2E6858"/>
    </g>
    <g transform="rotate(90 12 12)">
      <circle cx="10.3" cy="5.9" r="2.35" fill="#2E6858"/>
      <circle cx="13.7" cy="5.9" r="2.35" fill="#2E6858"/>
      <polygon points="8.4,6.9 15.6,6.9 12,11.6" fill="#2E6858"/>
    </g>
    <g transform="rotate(180 12 12)">
      <circle cx="10.3" cy="5.9" r="2.35" fill="#2E6858"/>
      <circle cx="13.7" cy="5.9" r="2.35" fill="#2E6858"/>
      <polygon points="8.4,6.9 15.6,6.9 12,11.6" fill="#2E6858"/>
    </g>
    <g transform="rotate(270 12 12)">
      <circle cx="10.3" cy="5.9" r="2.35" fill="#2E6858"/>
      <circle cx="13.7" cy="5.9" r="2.35" fill="#2E6858"/>
      <polygon points="8.4,6.9 15.6,6.9 12,11.6" fill="#2E6858"/>
    </g>
  </g>
</svg>
