<svg xmlns="http://www.w3.org/2000/svg" width="20" height="20" viewBox="0 0 24 24">
  <path d="M4.4 5 C2 5.2 1.8 9 4.6 10.2" stroke="#A84030" stroke-width="1.5" fill="none" stroke-linecap="round"/>
  <path d="M19.6 5 C22 5.2 22.2 9 19.4 10.2" stroke="#A84030" stroke-width="1.5" fill="none" stroke-linecap="round"/>
  <path d="M5 4.6 L19 4.6 C19 9.4 16.4 12.4 12 12.4 C7.6 12.4 5 9.4 5 4.6 Z" fill="#A84030"/>
  <rect x="10.9" y="12.4" width="2.2" height="4" fill="#A84030"/>
  <path d="M7.6 17.6 C9 16.4 15 16.4 16.4 17.6 L16.4 18.8 L7.6 18.8 Z" fill="#A84030"/>
  <rect x="6.6" y="18.8" width="10.8" height="1.8" rx="0.4" fill="#A84030"/>
  <path d="M6.6 7 C8.4 8 15.6 8 17.4 7" stroke="#DDD5BE" stroke-width="0.9" fill="none"/>
</svg>
