<svg xmlns="http://www.w3.org/2000/svg" width="20" height="20" viewBox="0 0 24 24">
  <path d="M12 20 L4.2 9.5 C3.4 8.3 3.8 6.6 5.4 6.2 C6.6 5.9 7.6 6.6 8.1 7.6 C8.2 6.2 9 4.6 10.6 4.4 C11.2 4.3 11.7 4.5 12 4.8 C12.3 4.5 12.8 4.3 13.4 4.4 C15 4.6 15.8 6.2 15.9 7.6 C16.4 6.6 17.4 5.9 18.6 6.2 C20.2 6.6 20.6 8.3 19.8 9.5 Z" fill="#C95B6B"/>
  <path d="M12 19 L7.2 9 M12 19 L10.6 7.6 M12 19 L13.4 7.6 M12 19 L16.8 9" stroke="#DDD5BE" stroke-width="0.85" fill="none" stroke-linecap="round"/>
  <rect x="10.6" y="19.4" width="2.8" height="1.9" rx="0.5" fill="#C95B6B"/>
</svg>
