<svg xmlns="http://www.w3.org/2000/svg" width="20" height="20" viewBox="0 0 24 24">
  <path d="M2 15 C2 9.5 6 7.5 9.5 9 C12.5 10.3 12.8 13.6 10.8 14.6 C9.2 15.4 7.6 14.2 8 12.6 C8.3 11.5 9.5 11.2 10.1 11.9" stroke="#1E2F56" stroke-width="1.7" fill="none" stroke-linecap="round"/>
  <path d="M11.5 17.5 C11.5 12 15.5 10 19 11.5 C22 12.8 22.3 16.1 20.3 17.1 C18.7 17.9 17.1 16.7 17.5 15.1 C17.8 14 19 13.7 19.6 14.4" stroke="#1E2F56" stroke-width="1.7" fill="none" stroke-linecap="round"/>
  <path d="M2 19.5 C5.5 18 8 18.5 11 19.8 C14.5 18.2 17 18.7 22 20.2" stroke="#1E2F56" stroke-width="1.1" fill="none" stroke-linecap="round" opacity="0.55"/>
</svg>
